<svg width="23" height="25" viewBox="0 0 23 25" fill="none" xmlns="http://www.w3.org/2000/svg">
<g clip-path="url(#clip0_226_1329)">
<path d="M4.45738 17.8382C5.31513 17.8382 6.01046 17.0824 6.01046 16.15C6.01046 15.2177 5.31513 14.4619 4.45738 14.4619C3.59964 14.4619 2.9043 15.2177 2.9043 16.15C2.9043 17.0824 3.59964 17.8382 4.45738 17.8382Z" fill="#014040"/>
<path d="M4.1983 22.4622C4.23184 22.5003 4.27214 22.5306 4.31675 22.5513C4.36136 22.572 4.40937 22.5827 4.45788 22.5827C4.50639 22.5827 4.55439 22.572 4.599 22.5513C4.64362 22.5306 4.68391 22.5003 4.71746 22.4622L7.30047 19.5299C8.85112 17.7763 8.85171 14.9097 7.30168 13.1398C6.93706 12.7176 6.49669 12.381 6.00776 12.1508C5.51883 11.9207 4.9917 11.8019 4.45889 11.8018C3.92608 11.8016 3.3989 11.9202 2.90988 12.1501C2.42085 12.38 1.98035 12.7164 1.61556 13.1385C0.0647198 14.8922 0.0641807 17.7587 1.61493 19.5293L4.1983 22.4622ZM4.45785 13.6802C4.90718 13.6802 5.34642 13.825 5.72003 14.0963C6.09364 14.3676 6.38483 14.7533 6.55679 15.2045C6.72874 15.6557 6.77374 16.1523 6.68609 16.6313C6.59843 17.1103 6.38206 17.5503 6.06434 17.8957C5.74662 18.241 5.34182 18.4762 4.90113 18.5715C4.46043 18.6668 4.00364 18.6179 3.58852 18.431C3.17339 18.2441 2.81858 17.9276 2.56894 17.5215C2.31931 17.1154 2.18607 16.638 2.18607 16.1496C2.18674 15.4949 2.42631 14.8672 2.8522 14.4043C3.2781 13.9413 3.85554 13.6809 4.45785 13.6802Z" fill="#014040"/>
<path d="M18.5423 6.54814C19.4001 6.54814 20.0954 5.79234 20.0954 4.86001C20.0954 3.92768 19.4001 3.17188 18.5423 3.17188C17.6846 3.17188 16.9893 3.92768 16.9893 4.86001C16.9893 5.79234 17.6846 6.54814 18.5423 6.54814Z" fill="#014040"/>
<path d="M18.5429 0.512696C18.0102 0.512438 17.4831 0.630929 16.9942 0.860843C16.5053 1.09076 16.0649 1.42721 15.7004 1.84941C14.1497 3.60308 14.1492 6.46963 15.6999 8.24033L18.2833 11.1731C18.3168 11.2112 18.3571 11.2415 18.4017 11.2622C18.4463 11.283 18.4943 11.2936 18.5429 11.2936C18.5914 11.2936 18.6394 11.283 18.684 11.2622C18.7286 11.2415 18.7689 11.2112 18.8024 11.1731L21.3854 8.24087C22.9361 6.48726 22.9367 3.6207 21.3867 1.85083C21.022 1.42824 20.5815 1.09145 20.0924 0.861288C19.6033 0.631125 19.0759 0.512481 18.5429 0.512696ZM18.5429 7.32988C18.0935 7.32989 17.6543 7.18507 17.2807 6.91374C16.9071 6.64241 16.6159 6.25674 16.4439 5.80552C16.272 5.3543 16.227 4.85779 16.3146 4.37877C16.4023 3.89976 16.6187 3.45975 16.9364 3.1144C17.2541 2.76904 17.6589 2.53385 18.0996 2.43857C18.5403 2.34328 18.9971 2.39218 19.4122 2.57908C19.8273 2.76598 20.1822 3.08249 20.4318 3.48858C20.6814 3.89467 20.8147 4.3721 20.8147 4.8605C20.814 5.51518 20.5744 6.14285 20.1485 6.60579C19.7226 7.06872 19.1452 7.32913 18.5429 7.32988Z" fill="#014040"/>
<path d="M4.40234 23.6328C4.40259 23.8658 4.48786 24.0892 4.63945 24.254C4.79104 24.4188 4.99656 24.5114 5.21094 24.5117H8.625C11.0525 24.5117 13.0273 22.3407 13.0273 19.7021V16.1377C13.0273 14.4684 14.2768 13.1348 15.8125 13.1348H17.6543C17.8687 13.1348 18.0744 13.0422 18.2261 12.8773C18.3777 12.7125 18.4629 12.489 18.4629 12.2559C18.4629 12.0228 18.3777 11.7992 18.2261 11.6344C18.0744 11.4696 17.8687 11.377 17.6543 11.377H15.8125C13.385 11.377 11.4102 13.4991 11.4102 16.1377V19.7021C11.4102 21.3714 10.1607 22.7539 8.625 22.7539H5.21094C4.99656 22.7542 4.79104 22.8469 4.63945 23.0116C4.48786 23.1764 4.40259 23.3998 4.40234 23.6328Z" fill="#014040"/>
</g>
<defs>
<clipPath id="clip0_226_1329">
<rect width="23" height="25" fill="white"/>
</clipPath>
</defs>
</svg>
