<svg width="47" height="52" viewBox="0 0 47 52" fill="none" xmlns="http://www.w3.org/2000/svg">
<path d="M9 41.3506C9 41.4816 9.05203 41.6072 9.14464 41.6998C9.23725 41.7924 9.36285 41.8444 9.49382 41.8444H15.3141L13.1946 43.9639C13.1046 44.0571 13.0549 44.1818 13.056 44.3113C13.0571 44.4408 13.109 44.5646 13.2006 44.6562C13.2922 44.7477 13.416 44.7997 13.5455 44.8008C13.675 44.8019 13.7997 44.7521 13.8929 44.6622L16.8558 41.6992C16.9015 41.6538 16.9378 41.5998 16.9625 41.5403C16.9873 41.4808 17 41.417 17 41.3526V41.3506C17 41.2864 16.9872 41.2222 16.9615 41.162C16.9369 41.1021 16.9006 41.0477 16.8548 41.002L13.8919 38.039C13.7987 37.9491 13.674 37.8993 13.5445 37.9004C13.415 37.9015 13.2912 37.9535 13.1996 38.045C13.1081 38.1366 13.0561 38.2604 13.055 38.3899C13.0539 38.5194 13.1036 38.6441 13.1936 38.7373L15.3141 40.8568H9.49382C9.36285 40.8568 9.23725 40.9088 9.14464 41.0014C9.05203 41.094 9 41.2196 9 41.3506Z" fill="#676767"/>
<path d="M9 32.4502C9 32.5812 9.05203 32.7068 9.14464 32.7994C9.23725 32.892 9.36285 32.944 9.49382 32.944H15.3141L13.1946 35.0635C13.1046 35.1567 13.0549 35.2814 13.056 35.4109C13.0571 35.5404 13.109 35.6642 13.2006 35.7558C13.2922 35.8473 13.416 35.8993 13.5455 35.9004C13.675 35.9015 13.7997 35.8517 13.8929 35.7618L16.8558 32.7988C16.9015 32.7534 16.9378 32.6994 16.9625 32.6399C16.9873 32.5804 17 32.5166 17 32.4522V32.4502C17 32.386 16.9872 32.3218 16.9615 32.2616C16.9369 32.2017 16.9006 32.1473 16.8548 32.1016L13.8919 29.1386C13.7987 29.0487 13.674 28.9989 13.5445 29C13.415 29.0011 13.2912 29.0531 13.1996 29.1446C13.1081 29.2362 13.0561 29.3601 13.055 29.4895C13.0539 29.619 13.1036 29.7438 13.1936 29.8369L15.3141 31.9564H9.49382C9.36285 31.9564 9.23725 32.0084 9.14464 32.101C9.05203 32.1936 9 32.3192 9 32.4502Z" fill="#676767"/>
<path d="M28.3258 44.0171V41.5637C28.3258 40.9397 28.8345 40.4327 29.4648 40.4285H31.7737C32.407 40.4285 32.9204 40.9367 32.9204 41.5637V44.0247C32.9203 44.5546 33.3474 44.9876 33.8824 45H35.4217C36.9561 45 38.2 43.7685 38.2 42.2495V35.2703C38.1918 34.6727 37.9084 34.1115 37.4304 33.7464L32.1662 29.5482C31.2439 28.8173 29.933 28.8173 29.0107 29.5482L23.7696 33.754C23.2898 34.1176 23.0059 34.6797 23 35.2779V42.2495C23 43.7685 24.2439 45 25.7783 45H27.3176C27.8659 45 28.3104 44.56 28.3104 44.0171" stroke="#676767" stroke-width="1.5" stroke-linecap="round" stroke-linejoin="round"/>
<path d="M41 6H6C3.23858 6 1 8.23858 1 11V46C1 48.7614 3.23858 51 6 51H41C43.7614 51 46 48.7614 46 46V11C46 8.23858 43.7614 6 41 6Z" stroke="#676767" stroke-width="2" stroke-linecap="round" stroke-linejoin="round"/>
<path d="M33.5 1V11" stroke="#676767" stroke-width="2" stroke-linecap="round" stroke-linejoin="round"/>
<path d="M13.5 1V11" stroke="#676767" stroke-width="2" stroke-linecap="round" stroke-linejoin="round"/>
<path d="M1 21H46" stroke="#676767" stroke-width="2" stroke-linecap="round" stroke-linejoin="round"/>
<path d="M6.70455 12.1818H7.54545L9.52273 17.0114H9.59091L11.5682 12.1818H12.4091V18H11.75V13.5795H11.6932L9.875 18H9.23864L7.42045 13.5795H7.36364V18H6.70455V12.1818ZM15.5036 18.0909C15.1096 18.0909 14.764 17.9972 14.4666 17.8097C14.1712 17.6222 13.9401 17.3598 13.7734 17.0227C13.6087 16.6856 13.5263 16.2917 13.5263 15.8409C13.5263 15.3864 13.6087 14.9896 13.7734 14.6506C13.9401 14.3116 14.1712 14.0483 14.4666 13.8608C14.764 13.6733 15.1096 13.5795 15.5036 13.5795C15.8975 13.5795 16.2422 13.6733 16.5376 13.8608C16.835 14.0483 17.0661 14.3116 17.2308 14.6506C17.3975 14.9896 17.4808 15.3864 17.4808 15.8409C17.4808 16.2917 17.3975 16.6856 17.2308 17.0227C17.0661 17.3598 16.835 17.6222 16.5376 17.8097C16.2422 17.9972 15.8975 18.0909 15.5036 18.0909ZM15.5036 17.4886C15.8028 17.4886 16.049 17.4119 16.2422 17.2585C16.4354 17.1051 16.5784 16.9034 16.6712 16.6534C16.764 16.4034 16.8104 16.1326 16.8104 15.8409C16.8104 15.5492 16.764 15.2775 16.6712 15.0256C16.5784 14.7737 16.4354 14.5701 16.2422 14.4148C16.049 14.2595 15.8028 14.1818 15.5036 14.1818C15.2043 14.1818 14.9581 14.2595 14.7649 14.4148C14.5717 14.5701 14.4287 14.7737 14.3359 15.0256C14.2431 15.2775 14.1967 15.5492 14.1967 15.8409C14.1967 16.1326 14.2431 16.4034 14.3359 16.6534C14.4287 16.9034 14.5717 17.1051 14.7649 17.2585C14.9581 17.4119 15.2043 17.4886 15.5036 17.4886ZM21.9162 13.6364L20.3026 18H19.6207L18.0071 13.6364H18.7344L19.9389 17.1136H19.9844L21.1889 13.6364H21.9162ZM24.4744 18.0909C24.054 18.0909 23.6913 17.9981 23.3864 17.8125C23.0833 17.625 22.8494 17.3636 22.6847 17.0284C22.5218 16.6913 22.4403 16.2992 22.4403 15.8523C22.4403 15.4053 22.5218 15.0114 22.6847 14.6705C22.8494 14.3277 23.0786 14.0606 23.3722 13.8693C23.6676 13.6761 24.0123 13.5795 24.4062 13.5795C24.6335 13.5795 24.858 13.6174 25.0795 13.6932C25.3011 13.7689 25.5028 13.892 25.6847 14.0625C25.8665 14.2311 26.0114 14.4545 26.1193 14.733C26.2273 15.0114 26.2812 15.3542 26.2812 15.7614V16.0455H22.9176V15.4659H25.5994C25.5994 15.2197 25.5502 15 25.4517 14.8068C25.3551 14.6136 25.2169 14.4612 25.0369 14.3494C24.8589 14.2377 24.6487 14.1818 24.4062 14.1818C24.1392 14.1818 23.9081 14.2481 23.7131 14.3807C23.5199 14.5114 23.3712 14.6818 23.267 14.892C23.1629 15.1023 23.1108 15.3277 23.1108 15.5682V15.9545C23.1108 16.2841 23.1676 16.5634 23.2812 16.7926C23.3968 17.0199 23.5568 17.1932 23.7614 17.3125C23.9659 17.4299 24.2036 17.4886 24.4744 17.4886C24.6506 17.4886 24.8097 17.464 24.9517 17.4148C25.0956 17.3636 25.2197 17.2879 25.3239 17.1875C25.428 17.0852 25.5085 16.9583 25.5653 16.8068L26.2131 16.9886C26.1449 17.2083 26.0303 17.4015 25.8693 17.5682C25.7083 17.733 25.5095 17.8617 25.2727 17.9545C25.036 18.0455 24.7699 18.0909 24.4744 18.0909ZM32.0511 15.1932V15.8182H29.5057V15.1932H32.0511ZM33.2308 18V13.6364H33.9013V18H33.2308ZM33.5717 12.9091C33.4411 12.9091 33.3284 12.8646 33.2337 12.7756C33.1409 12.6866 33.0945 12.5795 33.0945 12.4545C33.0945 12.3295 33.1409 12.2225 33.2337 12.1335C33.3284 12.0445 33.4411 12 33.5717 12C33.7024 12 33.8142 12.0445 33.907 12.1335C34.0017 12.2225 34.049 12.3295 34.049 12.4545C34.049 12.5795 34.0017 12.6866 33.907 12.7756C33.8142 12.8646 33.7024 12.9091 33.5717 12.9091ZM35.7997 15.375V18H35.1293V13.6364H35.777V14.3182H35.8338C35.9361 14.0966 36.0914 13.9186 36.2997 13.7841C36.508 13.6477 36.777 13.5795 37.1065 13.5795C37.402 13.5795 37.6605 13.6402 37.8821 13.7614C38.1037 13.8807 38.276 14.0625 38.3991 14.3068C38.5223 14.5492 38.5838 14.8561 38.5838 15.2273V18H37.9134V15.2727C37.9134 14.9299 37.8243 14.6629 37.6463 14.4716C37.4683 14.2784 37.224 14.1818 36.9134 14.1818C36.6993 14.1818 36.508 14.2282 36.3395 14.321C36.1728 14.4138 36.0412 14.5492 35.9446 14.7273C35.848 14.9053 35.7997 15.1212 35.7997 15.375Z" fill="#2D2D2D"/>
</svg>
