<svg width="51" height="50" viewBox="0 0 51 50" fill="none" xmlns="http://www.w3.org/2000/svg">
<path d="M14.9284 34.6188V29.5075C14.9284 28.2075 15.9882 27.1511 17.3014 27.1424H22.1115C23.431 27.1424 24.5006 28.2013 24.5006 29.5075V34.6346C24.5003 35.7384 25.3902 36.6406 26.5048 36.6664H29.7116C32.9083 36.6664 35.4998 34.1009 35.4998 30.9361V16.3961C35.4827 15.1511 34.8922 13.982 33.8964 13.2214L22.9293 4.47518C21.0079 2.95228 18.2767 2.95228 16.3554 4.47518L5.43639 13.2373C4.43677 13.9947 3.84532 15.1658 3.83301 16.412V30.9361C3.83301 34.1009 6.42447 36.6664 9.62121 36.6664H12.828C13.9703 36.6664 14.8963 35.7497 14.8963 34.6188" stroke="#676767" stroke-width="2" stroke-linecap="round" stroke-linejoin="round"/>
<path d="M41.4453 39.4453V1H49.5V49H1.5V40.9453H39.9453C40.7737 40.9453 41.4453 40.2737 41.4453 39.4453Z" fill="white" stroke="#676767" stroke-width="2"/>
<path d="M3.19531 45.9453C3.19531 45.6692 3.41917 45.4453 3.69531 45.4453H3.86719C4.14333 45.4453 4.36719 45.6692 4.36719 45.9453V49.5C4.36719 49.7761 4.14333 50 3.86719 50H3.69531C3.41917 50 3.19531 49.7761 3.19531 49.5V45.9453ZM6.53906 47.3984C6.53906 47.1223 6.76292 46.8984 7.03906 46.8984H7.21094C7.48708 46.8984 7.71094 47.1223 7.71094 47.3984V49.5C7.71094 49.7761 7.48708 50 7.21094 50H7.03906C6.76292 50 6.53906 49.7761 6.53906 49.5V47.3984ZM9.875 45.9453C9.875 45.6692 10.0989 45.4453 10.375 45.4453H10.5469C10.823 45.4453 11.0469 45.6692 11.0469 45.9453V49.5C11.0469 49.7761 10.823 50 10.5469 50H10.375C10.0989 50 9.875 49.7761 9.875 49.5V45.9453ZM13.2188 47.3984C13.2188 47.1223 13.4426 46.8984 13.7188 46.8984H13.8906C14.1668 46.8984 14.3906 47.1223 14.3906 47.3984V49.5C14.3906 49.7761 14.1668 50 13.8906 50H13.7187C13.4426 50 13.2188 49.7761 13.2188 49.5V47.3984ZM16.5625 45.9453C16.5625 45.6692 16.7864 45.4453 17.0625 45.4453H17.2344C17.5105 45.4453 17.7344 45.6692 17.7344 45.9453V49.5C17.7344 49.7761 17.5105 50 17.2344 50H17.0625C16.7864 50 16.5625 49.7761 16.5625 49.5V45.9453ZM19.8984 47.3984C19.8984 47.1223 20.1223 46.8984 20.3984 46.8984H20.5703C20.8465 46.8984 21.0703 47.1223 21.0703 47.3984V49.5C21.0703 49.7761 20.8465 50 20.5703 50H20.3984C20.1223 50 19.8984 49.7761 19.8984 49.5V47.3984ZM23.2422 45.9453C23.2422 45.6692 23.466 45.4453 23.7422 45.4453H23.9141C24.1902 45.4453 24.4141 45.6692 24.4141 45.9453V49.5C24.4141 49.7761 24.1902 50 23.9141 50H23.7422C23.466 50 23.2422 49.7761 23.2422 49.5V45.9453ZM26.5859 47.3984C26.5859 47.1223 26.8098 46.8984 27.0859 46.8984H27.2578C27.534 46.8984 27.7578 47.1223 27.7578 47.3984V49.5C27.7578 49.7761 27.534 50 27.2578 50H27.0859C26.8098 50 26.5859 49.7761 26.5859 49.5V47.3984ZM29.9297 45.9453C29.9297 45.6692 30.1535 45.4453 30.4297 45.4453H30.6016C30.8777 45.4453 31.1016 45.6692 31.1016 45.9453V49.5C31.1016 49.7761 30.8777 50 30.6016 50H30.4297C30.1535 50 29.9297 49.7761 29.9297 49.5V45.9453ZM33.2656 47.3984C33.2656 47.1223 33.4895 46.8984 33.7656 46.8984H33.9375C34.2136 46.8984 34.4375 47.1223 34.4375 47.3984V49.5C34.4375 49.7761 34.2136 50 33.9375 50H33.7656C33.4895 50 33.2656 49.7761 33.2656 49.5V47.3984ZM36.6094 45.9453C36.6094 45.6692 36.8332 45.4453 37.1094 45.4453H37.2812C37.5574 45.4453 37.7812 45.6692 37.7812 45.9453V49.5C37.7812 49.7761 37.5574 50 37.2812 50H37.1094C36.8332 50 36.6094 49.7761 36.6094 49.5V45.9453ZM39.9531 47.3984C39.9531 47.1223 40.177 46.8984 40.4531 46.8984H40.625C40.9011 46.8984 41.125 47.1223 41.125 47.3984V49.5C41.125 49.7761 40.9011 50 40.625 50H40.4531C40.177 50 39.9531 49.7761 39.9531 49.5V47.3984ZM43.2891 45.9453C43.2891 45.6692 43.5129 45.4453 43.7891 45.4453H43.9609C44.2371 45.4453 44.4609 45.6692 44.4609 45.9453V49.5C44.4609 49.7761 44.2371 50 43.9609 50H43.7891C43.5129 50 43.2891 49.7761 43.2891 49.5V45.9453ZM45.9453 3.19531C45.9453 2.91917 46.1692 2.69531 46.4453 2.69531H50C50.2761 2.69531 50.5 2.91917 50.5 3.19531V3.36719C50.5 3.64333 50.2761 3.86719 50 3.86719H46.4453C46.1692 3.86719 45.9453 3.64333 45.9453 3.36719V3.19531ZM47.3984 6.53906C47.3984 6.26292 47.6223 6.03906 47.8984 6.03906H50C50.2761 6.03906 50.5 6.26292 50.5 6.53906V6.71094C50.5 6.98708 50.2761 7.21094 50 7.21094H47.8984C47.6223 7.21094 47.3984 6.98708 47.3984 6.71094V6.53906ZM45.9453 9.875C45.9453 9.59886 46.1692 9.375 46.4453 9.375H50C50.2761 9.375 50.5 9.59886 50.5 9.875V10.0469C50.5 10.323 50.2761 10.5469 50 10.5469H46.4453C46.1692 10.5469 45.9453 10.323 45.9453 10.0469V9.875ZM47.3984 13.2187C47.3984 12.9426 47.6223 12.7188 47.8984 12.7188H50C50.2761 12.7188 50.5 12.9426 50.5 13.2188V13.3906C50.5 13.6668 50.2761 13.8906 50 13.8906H47.8984C47.6223 13.8906 47.3984 13.6668 47.3984 13.3906V13.2187ZM45.9453 16.5625C45.9453 16.2864 46.1692 16.0625 46.4453 16.0625H50C50.2761 16.0625 50.5 16.2864 50.5 16.5625V16.7344C50.5 17.0105 50.2761 17.2344 50 17.2344H46.4453C46.1692 17.2344 45.9453 17.0105 45.9453 16.7344V16.5625ZM47.3984 19.8984C47.3984 19.6223 47.6223 19.3984 47.8984 19.3984H50C50.2761 19.3984 50.5 19.6223 50.5 19.8984V20.0703C50.5 20.3465 50.2761 20.5703 50 20.5703H47.8984C47.6223 20.5703 47.3984 20.3465 47.3984 20.0703V19.8984ZM45.9453 23.2422C45.9453 22.966 46.1692 22.7422 46.4453 22.7422H50C50.2761 22.7422 50.5 22.966 50.5 23.2422V23.4141C50.5 23.6902 50.2761 23.9141 50 23.9141H46.4453C46.1692 23.9141 45.9453 23.6902 45.9453 23.4141V23.2422ZM47.3984 26.5859C47.3984 26.3098 47.6223 26.0859 47.8984 26.0859H50C50.2761 26.0859 50.5 26.3098 50.5 26.5859V26.7578C50.5 27.034 50.2761 27.2578 50 27.2578H47.8984C47.6223 27.2578 47.3984 27.034 47.3984 26.7578V26.5859ZM45.9453 29.9297C45.9453 29.6535 46.1692 29.4297 46.4453 29.4297H50C50.2761 29.4297 50.5 29.6535 50.5 29.9297V30.1016C50.5 30.3777 50.2761 30.6016 50 30.6016H46.4453C46.1692 30.6016 45.9453 30.3777 45.9453 30.1016V29.9297ZM47.3984 33.2656C47.3984 32.9895 47.6223 32.7656 47.8984 32.7656H50C50.2761 32.7656 50.5 32.9895 50.5 33.2656V33.4375C50.5 33.7136 50.2761 33.9375 50 33.9375H47.8984C47.6223 33.9375 47.3984 33.7136 47.3984 33.4375V33.2656ZM45.9453 36.6094C45.9453 36.3332 46.1692 36.1094 46.4453 36.1094H50C50.2761 36.1094 50.5 36.3332 50.5 36.6094V36.7812C50.5 37.0574 50.2761 37.2812 50 37.2812H46.4453C46.1692 37.2812 45.9453 37.0574 45.9453 36.7812V36.6094ZM47.3984 39.9531C47.3984 39.677 47.6223 39.4531 47.8984 39.4531H50C50.2761 39.4531 50.5 39.677 50.5 39.9531V40.125C50.5 40.4011 50.2761 40.625 50 40.625H47.8984C47.6223 40.625 47.3984 40.4011 47.3984 40.125V39.9531ZM45.9453 43.2891C45.9453 43.0129 46.1692 42.7891 46.4453 42.7891H50C50.2761 42.7891 50.5 43.0129 50.5 43.2891V43.4609C50.5 43.7371 50.2761 43.9609 50 43.9609H46.4453C46.1692 43.9609 45.9453 43.7371 45.9453 43.4609V43.2891Z" fill="#676767"/>
</svg>
