<svg width="52" height="46" viewBox="0 0 52 46" fill="none" xmlns="http://www.w3.org/2000/svg">
<path d="M13.2292 20.6025H1" stroke="#676767" stroke-width="2" stroke-linecap="round" stroke-linejoin="round"/>
<path d="M50.9999 20.6025H24.6943" stroke="#676767" stroke-width="2" stroke-linecap="round" stroke-linejoin="round"/>
<path d="M40.8662 12.0596V14.1095" stroke="#676767" stroke-width="2" stroke-linecap="round" stroke-linejoin="round"/>
<path d="M34.6309 14.1095V12.0596" stroke="#676767" stroke-width="2" stroke-linecap="round" stroke-linejoin="round"/>
<path d="M37.75 14.1095V12.0596" stroke="#676767" stroke-width="2" stroke-linecap="round" stroke-linejoin="round"/>
<path d="M14.1492 40.6172L13.2217 44.07" stroke="#676767" stroke-width="2" stroke-linecap="round" stroke-linejoin="round"/>
<path d="M24.6941 25.3018H47.8196V28.4195C47.8196 31.7269 46.5058 34.8989 44.167 37.2376C41.8283 39.5764 38.6563 40.8902 35.3488 40.8902H16.6427C13.3352 40.8902 10.1632 39.5764 7.82448 37.2376C5.48576 34.8989 4.17188 31.7269 4.17188 28.4195V25.3018H13.2288" stroke="#676767" stroke-width="2" stroke-linecap="round" stroke-linejoin="round"/>
<path d="M40.8663 8.45117H34.6309" stroke="#676767" stroke-width="2" stroke-linecap="round" stroke-linejoin="round"/>
<path d="M37.75 8.15512V6.03508C37.7521 4.70033 38.2832 3.42083 39.227 2.47702C40.1708 1.5332 41.4503 1.00206 42.7851 1V1C44.1205 1 45.4012 1.53048 46.3454 2.47474C47.2897 3.419 47.8202 4.6997 47.8202 6.03508V20.6025" stroke="#676767" stroke-width="2" stroke-linecap="round" stroke-linejoin="round"/>
<path d="M37.8428 40.6172L38.7703 44.07" stroke="#676767" stroke-width="2" stroke-linecap="round" stroke-linejoin="round"/>
<path d="M47.8199 20.6025H24.6943V25.3025H47.8199V20.6025Z" stroke="#676767" stroke-width="2" stroke-linecap="round" stroke-linejoin="round"/>
<path d="M4.18038 25.3018H13.2295V20.6018H4.18038V25.3018Z" stroke="#676767" stroke-width="2" stroke-linecap="round" stroke-linejoin="round"/>
<path d="M24.7026 30.7354H13.2295V25.3028V18.6543H24.7026V25.3028V30.7354Z" stroke="#676767" stroke-width="2" stroke-linecap="round" stroke-linejoin="round"/>
<path d="M24.7026 30.7354H13.2295V25.3028V18.6543H24.7026V25.3028V30.7354Z" stroke="#676767" stroke-width="2" stroke-linecap="round" stroke-linejoin="round"/>
</svg>
