<svg width="17" height="25" viewBox="0 0 17 25" fill="none" xmlns="http://www.w3.org/2000/svg">
<path d="M12.6563 2.49994C12.6563 3.88059 11.5371 4.99987 10.1564 4.99987C8.77575 4.99987 7.65646 3.88059 7.65646 2.49994C7.65646 1.11926 8.77575 0 10.1564 0C11.5371 0 12.6563 1.11926 12.6563 2.49994ZM9.18305 15.2476L12.4285 18.45C12.553 18.5728 12.6503 18.7203 12.7141 18.8831L14.4449 23.2927C14.6971 23.9353 14.3806 24.6607 13.738 24.9129C13.0954 25.1652 12.37 24.8487 12.1178 24.2061L10.484 20.0432L4.9036 14.537C4.63061 14.2676 4.49636 13.8878 4.53948 13.5067L4.98647 9.55719C3.90906 10.6276 3.07796 12.1336 2.44104 14.129C2.23117 14.7866 1.52787 15.1496 0.870202 14.9397C0.212532 14.7297 -0.150396 14.0264 0.0595357 13.3688C1.22838 9.70675 3.16902 6.96569 6.42493 5.70866L6.43975 5.70304C7.26891 5.39492 8.13164 5.41973 8.89993 5.81697C9.63841 6.19871 10.164 6.85801 10.5082 7.59693C10.6531 7.90804 10.7871 8.19879 10.9129 8.47172C11.2178 9.13282 11.4746 9.68981 11.7209 10.1793C12.067 10.867 12.3452 11.3223 12.62 11.6425C12.8748 11.9393 13.1284 12.1217 13.4515 12.2478C13.7988 12.3835 14.2857 12.4769 15.0374 12.4995C15.7274 12.5202 16.2701 13.0963 16.2494 13.7864C16.2286 14.4764 15.6525 15.019 14.9625 14.9983C14.0594 14.9712 13.2575 14.8559 12.542 14.5765C11.8024 14.2876 11.2191 13.8486 10.7231 13.2708C10.4103 12.9064 10.136 12.4909 9.87891 12.0385L9.18305 15.2476Z" fill="#014040"/>
<path d="M4.53906 16.3867L6.61094 18.3739L5.65759 21.5911C5.58378 21.84 5.43435 22.0598 5.22992 22.2199L2.02087 24.7338C1.47745 25.1595 0.691783 25.0641 0.266045 24.5206C-0.159694 23.9772 -0.0642596 23.1915 0.479226 22.7658L3.37409 20.498L4.24638 17.5544L4.53906 16.3867Z" fill="#014040"/>
</svg>
