<?xml version="1.0" standalone="no"?>
<!DOCTYPE svg PUBLIC "-//W3C//DTD SVG 20010904//EN"
 "http://www.w3.org/TR/2001/REC-SVG-20010904/DTD/svg10.dtd">
<svg version="1.0" xmlns="http://www.w3.org/2000/svg"
 width="512.000000pt" height="512.000000pt" viewBox="0 0 512.000000 512.000000"
 preserveAspectRatio="xMidYMid meet">

<g transform="translate(0.000000,512.000000) scale(0.100000,-0.100000)"
fill="#008080" stroke="none">
<path d="M2511 5106 c-44 -25 -50 -50 -51 -217 l0 -156 -482 -128 c-419 -112
-487 -133 -510 -156 -18 -18 -28 -38 -28 -57 0 -16 111 -443 246 -947 l246
-918 -212 -212 -213 -213 -29 34 c-16 18 -55 46 -86 61 l-57 28 -555 0 c-543
0 -556 0 -601 -21 -66 -31 -114 -78 -146 -142 l-28 -57 0 -890 c0 -884 0 -890
21 -936 31 -66 78 -114 142 -146 l57 -28 555 0 555 0 57 28 c64 31 112 81 140
144 10 24 21 43 24 43 2 0 41 -31 85 -70 44 -38 104 -81 132 -94 121 -59 33
-56 1720 -56 1683 0 1589 -3 1615 55 17 38 17 4972 0 5010 -26 58 42 55 -1320
55 -1021 -1 -1257 -3 -1277 -14z m2409 -2546 l0 -2360 -356 0 c-335 0 -356 1
-349 18 26 67 26 177 0 243 -5 13 4 17 53 22 123 13 227 87 278 200 23 51 28
76 28 137 0 47 -6 89 -16 112 l-17 37 54 25 c68 31 130 93 164 165 22 47 26
70 26 141 0 76 -4 93 -32 151 l-33 66 0 646 0 646 -23 26 c-51 60 -145 36
-167 -43 -6 -23 -10 -244 -10 -597 l0 -561 -35 4 c-19 2 -35 5 -35 6 0 0 7 23
15 50 20 66 19 111 -5 189 -26 83 -96 164 -177 204 -50 24 -71 28 -174 31
l-118 4 57 37 c158 103 244 294 214 473 -36 207 -193 364 -400 400 -309 53
-596 -234 -544 -544 23 -137 101 -255 216 -330 l59 -38 -266 0 -267 0 0 950
c0 896 1 951 18 956 159 54 281 172 323 312 l12 42 377 0 377 0 12 -42 c42
-140 164 -258 324 -312 15 -5 17 -21 17 -153 0 -215 18 -258 107 -258 37 0 49
5 69 28 24 28 24 29 24 268 l0 241 -29 29 c-21 21 -39 29 -63 29 -143 0 -252
106 -273 263 -4 28 -16 58 -30 75 l-23 27 -512 0 -512 0 -23 -27 c-14 -17 -26
-47 -30 -75 -21 -157 -130 -263 -273 -263 -24 0 -42 -8 -63 -29 l-29 -29 0
-1016 0 -1016 -100 0 -100 0 0 1400 0 1400 1130 0 1130 0 0 -2360z m-2460
1781 l0 -189 -41 -7 c-22 -4 -52 -17 -67 -30 -26 -23 -27 -26 -27 -137 0 -104
-2 -116 -27 -158 -37 -63 -73 -95 -143 -125 -68 -30 -94 -57 -95 -99 0 -20
336 -1290 386 -1458 5 -16 -4 -18 -95 -18 l-100 0 -10 38 c-5 20 -28 109 -51
197 -22 88 -45 170 -50 183 -10 24 -466 1720 -472 1756 -3 17 32 28 307 102
262 71 472 129 483 133 1 1 2 -84 2 -188z m-1 -1063 l0 -413 -90 330 -91 330
24 14 c13 8 52 45 88 82 36 37 66 67 68 68 1 1 2 -185 1 -411z m1450 -467 c59
-31 94 -65 126 -123 25 -45 29 -64 29 -128 0 -64 -4 -83 -29 -128 -54 -100
-132 -146 -245 -146 -113 0 -191 46 -245 146 -25 45 -29 64 -29 128 0 78 11
112 61 177 26 36 97 81 146 94 48 12 142 2 186 -20z m-1869 -676 c35 -137 45
-164 71 -187 l29 -28 1013 0 c944 0 1014 -1 1046 -18 52 -26 76 -65 76 -122 0
-57 -24 -96 -76 -122 -31 -16 -79 -18 -567 -18 l-534 0 -34 -34 c-24 -24 -34
-43 -34 -66 0 -23 10 -41 34 -66 l34 -34 694 0 c674 0 694 -1 726 -20 94 -57
94 -183 0 -240 -32 -19 -52 -20 -726 -20 l-694 0 -34 -34 c-46 -46 -46 -86 0
-132 l34 -34 584 0 c643 0 625 2 672 -63 29 -39 29 -115 0 -154 -47 -65 -29
-63 -672 -63 l-584 0 -34 -34 c-25 -24 -34 -43 -34 -66 0 -23 9 -42 34 -66
l34 -34 411 0 c453 0 459 -1 501 -61 52 -73 16 -185 -68 -209 -26 -8 -338 -10
-1027 -8 -980 3 -990 3 -1035 24 -25 11 -107 74 -182 140 l-138 118 0 691 0
690 217 217 c119 120 218 216 219 215 1 -1 21 -74 44 -162z m-1360 -690 c0
-627 0 -628 49 -655 25 -13 77 -13 102 0 49 27 49 28 49 655 l0 585 200 0
c216 0 242 -5 266 -51 21 -42 21 -1686 0 -1728 -27 -51 -30 -51 -566 -51 -536
0 -539 0 -566 51 -20 40 -20 1691 0 1728 26 46 47 50 264 51 l202 0 0 -585z"/>
<path d="M4580 3308 c-62 -32 -69 -118 -13 -167 22 -19 34 -22 67 -18 112 15
117 177 6 193 -19 2 -46 -1 -60 -8z"/>
<path d="M731 586 c-87 -48 -50 -186 49 -186 51 0 100 49 100 99 0 75 -83 124
-149 87z"/>
</g>
</svg>
