<svg width="20" height="25" viewBox="0 0 20 25" fill="none" xmlns="http://www.w3.org/2000/svg">
<path d="M10 0C4.475 0 0 0.657895 0 5.26316V17.7632C0 20.3026 1.9625 22.3684 4.375 22.3684L2.9375 23.8816C2.55 24.2895 2.825 25 3.3875 25H16.625C17.1875 25 17.4625 24.2895 17.0625 23.8816L15.625 22.3684C18.0375 22.3684 20 20.3026 20 17.7632V5.26316C20 0.657895 15.525 0 10 0ZM4.375 19.7368C3.3375 19.7368 2.5 18.8553 2.5 17.7632C2.5 16.6711 3.3375 15.7895 4.375 15.7895C5.4125 15.7895 6.25 16.6711 6.25 17.7632C6.25 18.8553 5.4125 19.7368 4.375 19.7368ZM8.75 11.8421H2.5V5.26316H8.75V11.8421ZM15.625 19.7368C14.5875 19.7368 13.75 18.8553 13.75 17.7632C13.75 16.6711 14.5875 15.7895 15.625 15.7895C16.6625 15.7895 17.5 16.6711 17.5 17.7632C17.5 18.8553 16.6625 19.7368 15.625 19.7368ZM17.5 11.8421H11.25V5.26316H17.5V11.8421Z" fill="#014040"/>
</svg>
