<svg width="51" height="37" viewBox="0 0 51 37" fill="none" xmlns="http://www.w3.org/2000/svg">
<path d="M49.6379 25H48.7759V21.5517C48.7759 20.4085 48.3217 19.3122 47.5134 18.5038C46.705 17.6955 45.6087 17.2414 44.4655 17.2414H43.6034V6.03448C43.6034 4.43404 42.9677 2.89914 41.836 1.76746C40.7043 0.635774 39.1694 0 37.569 0H13.431C11.8306 0 10.2957 0.635774 9.16401 1.76746C8.03233 2.89914 7.39655 4.43404 7.39655 6.03448V17.2414H6.53448C5.39131 17.2414 4.29496 17.6955 3.48661 18.5038C2.67826 19.3122 2.22414 20.4085 2.22414 21.5517V25H1.36207C1.13343 25 0.914163 25.0908 0.752494 25.2525C0.590825 25.4142 0.5 25.6334 0.5 25.8621V35.3448C0.5 35.5735 0.590825 35.7927 0.752494 35.9544C0.914163 36.1161 1.13343 36.2069 1.36207 36.2069H7.68103C7.86176 36.2074 8.03806 36.151 8.18502 36.0458C8.33198 35.9406 8.44217 35.7919 8.5 35.6207L9.12069 33.6638C9.29953 33.158 9.63125 32.7203 10.0699 32.4113C10.5086 32.1024 11.0325 31.9376 11.569 31.9397H39.3965C39.9331 31.9376 40.4569 32.1024 40.8956 32.4113C41.3343 32.7203 41.666 33.158 41.8448 33.6638L42.5 35.6207C42.56 35.7991 42.6767 35.953 42.8324 36.0589C42.988 36.1647 43.1741 36.2167 43.3621 36.2069H49.6379C49.8666 36.2069 50.0858 36.1161 50.2475 35.9544C50.4092 35.7927 50.5 35.5735 50.5 35.3448V25.8621C50.5 25.6334 50.4092 25.4142 50.2475 25.2525C50.0858 25.0908 49.8666 25 49.6379 25ZM9.12069 6.03448C9.12069 4.89131 9.57481 3.79496 10.3832 2.98661C11.1915 2.17826 12.2879 1.72414 13.431 1.72414H37.569C38.7121 1.72414 39.8085 2.17826 40.6168 2.98661C41.4252 3.79496 41.8793 4.89131 41.8793 6.03448V17.2414H39.1379C39.3965 16.5172 39.25 16.1983 39.2931 14.6552C39.2931 13.9693 39.0206 13.3115 38.5356 12.8264C38.0506 12.3414 37.3928 12.069 36.7069 12.069H30.6724C29.9865 12.069 29.3287 12.3414 28.8437 12.8264C28.3587 13.3115 28.0862 13.9693 28.0862 14.6552C28.0862 16.1983 27.9828 16.5172 28.2414 17.2414H22.7586C23.0172 16.5172 22.8707 16.1983 22.9138 14.6552C22.9138 13.9693 22.6413 13.3115 22.1563 12.8264C21.6713 12.3414 21.0135 12.069 20.3276 12.069H14.2931C13.6072 12.069 12.9494 12.3414 12.4644 12.8264C11.9794 13.3115 11.7069 13.9693 11.7069 14.6552C11.75 16.1983 11.6034 16.5172 11.8621 17.2414H9.12069V6.03448ZM29.8103 16.3793V14.6552C29.8103 14.4265 29.9012 14.2073 30.0628 14.0456C30.2245 13.8839 30.4438 13.7931 30.6724 13.7931H36.7069C36.9355 13.7931 37.1548 13.8839 37.3165 14.0456C37.4781 14.2073 37.569 14.4265 37.569 14.6552V16.3793C37.569 16.6079 37.4781 16.8272 37.3165 16.9889C37.1548 17.1506 36.9355 17.2414 36.7069 17.2414H30.6724C30.4438 17.2414 30.2245 17.1506 30.0628 16.9889C29.9012 16.8272 29.8103 16.6079 29.8103 16.3793ZM13.431 16.3793V14.6552C13.431 14.4265 13.5219 14.2073 13.6835 14.0456C13.8452 13.8839 14.0645 13.7931 14.2931 13.7931H20.3276C20.5562 13.7931 20.7755 13.8839 20.9372 14.0456C21.0988 14.2073 21.1897 14.4265 21.1897 14.6552V16.3793C21.1897 16.6079 21.0988 16.8272 20.9372 16.9889C20.7755 17.1506 20.5562 17.2414 20.3276 17.2414H14.2931C14.0645 17.2414 13.8452 17.1506 13.6835 16.9889C13.5219 16.8272 13.431 16.6079 13.431 16.3793ZM3.94828 21.5517C3.94828 20.8658 4.22075 20.208 4.70576 19.723C5.19077 19.238 5.84858 18.9655 6.53448 18.9655H44.4655C45.1514 18.9655 45.8092 19.238 46.2942 19.723C46.7792 20.208 47.0517 20.8658 47.0517 21.5517V25H3.94828V21.5517ZM48.7759 34.4828H43.9397L43.4828 33.1207C43.197 32.2627 42.6487 31.5164 41.9153 30.9873C41.182 30.4582 40.3008 30.1731 39.3965 30.1724H11.6034C10.6992 30.1731 9.818 30.4582 9.08467 30.9873C8.35134 31.5164 7.803 32.2627 7.51724 33.1207L7.06034 34.4828H2.22414V26.7241H48.7759V34.4828Z" fill="#676767"/>
</svg>
