<svg width="52" height="50" viewBox="0 0 52 50" fill="none" xmlns="http://www.w3.org/2000/svg">
<g clip-path="url(#clip0_226_1011)">
<path fill-rule="evenodd" clip-rule="evenodd" d="M18.1576 50C25.8873 50 43.5006 50 48.8393 50C49.4611 50 50.0572 49.7531 50.4967 49.3137C50.9361 48.8738 51.183 48.2777 51.183 47.6562C51.183 41.1523 51.183 16.2637 51.183 9.75977C51.183 9.13828 50.9361 8.54219 50.4967 8.10234C50.0572 7.66289 49.4611 7.41602 48.8393 7.41602C42.9244 7.41602 21.9432 7.41602 16.0283 7.41602C15.4068 7.41602 14.8104 7.66289 14.3709 8.10234C13.9314 8.54219 13.6846 9.13828 13.6846 9.75977C13.6846 14.2387 13.6846 27.4359 13.6846 37.3441C13.6846 37.7754 14.0346 38.1254 14.4658 38.1254C14.8971 38.1254 15.2471 37.7754 15.2471 37.3441C15.2471 27.4359 15.2471 14.2387 15.2471 9.75977C15.2471 9.55273 15.3295 9.35391 15.476 9.20742C15.6225 9.06094 15.8209 8.97852 16.0283 8.97852H48.8393C49.0467 8.97852 49.2451 9.06094 49.392 9.20742C49.5385 9.35391 49.6205 9.55273 49.6205 9.75977C49.6205 16.2637 49.6205 41.1523 49.6205 47.6562C49.6205 47.8633 49.5385 48.0621 49.392 48.2086C49.2451 48.3551 49.0467 48.4375 48.8393 48.4375H18.1576C17.7264 48.4375 17.3764 48.7875 17.3764 49.2188C17.3764 49.65 17.7264 50 18.1576 50Z" fill="#676767"/>
<path fill-rule="evenodd" clip-rule="evenodd" d="M14.4658 14.8506H50.4018C50.833 14.8506 51.183 14.5006 51.183 14.0693C51.183 13.6381 50.833 13.2881 50.4018 13.2881H14.4658C14.0346 13.2881 13.6846 13.6381 13.6846 14.0693C13.6846 14.5006 14.0346 14.8506 14.4658 14.8506ZM32.4338 18.9428C27.0439 18.9428 22.6682 23.3186 22.6682 28.7084C22.6682 34.0979 27.0439 38.474 32.4338 38.474C37.8236 38.474 42.1994 34.0979 42.1994 28.7084C42.1994 23.3186 37.8236 18.9428 32.4338 18.9428ZM32.4338 20.5053C36.9611 20.5053 40.6369 24.1807 40.6369 28.7084C40.6369 33.2357 36.9611 36.9115 32.4338 36.9115C27.9064 36.9115 24.2307 33.2357 24.2307 28.7084C24.2307 24.1807 27.9064 20.5053 32.4338 20.5053Z" fill="#676767"/>
<path fill-rule="evenodd" clip-rule="evenodd" d="M32.4336 22.2627C28.9918 22.2627 26.1836 25.1432 26.1836 28.708C26.1836 32.2725 28.9918 35.1533 32.4336 35.1533C35.8754 35.1533 38.6836 32.2725 38.6836 28.708C38.6836 25.1432 35.8754 22.2627 32.4336 22.2627ZM32.4336 23.8252C35.0285 23.8252 37.1211 26.0205 37.1211 28.708C37.1211 31.3955 35.0285 33.5908 32.4336 33.5908C29.8387 33.5908 27.7461 31.3955 27.7461 28.708C27.7461 26.0205 29.8387 23.8252 32.4336 23.8252Z" fill="#676767"/>
<path fill-rule="evenodd" clip-rule="evenodd" d="M26.5268 28.44C26.3197 28.2014 26.1834 28.4389 26.1834 28.708C26.1834 29.015 26.3611 29.2811 26.6193 29.4084C27.1045 30.1639 27.9525 30.6639 28.9166 30.6639C29.4326 30.6639 29.9154 30.5205 30.3275 30.2713C30.5635 30.1303 30.8604 30.1271 31.1018 30.2646C31.1021 30.265 31.1025 30.2654 31.1029 30.2654C31.5455 30.5166 32.0682 30.6639 32.6279 30.6639C33.2033 30.6639 33.7393 30.5084 34.1893 30.2439C34.1893 30.2436 34.1897 30.2436 34.1897 30.2436C34.4311 30.101 34.7311 30.101 34.9725 30.2436C34.9729 30.2439 34.9732 30.2439 34.9736 30.2443C35.4236 30.5088 35.9592 30.6639 36.5342 30.6639C36.8432 30.6639 37.1404 30.6193 37.4186 30.5357C37.5076 30.5842 37.608 30.6158 37.715 30.6264C38.1443 30.6682 38.5268 30.3537 38.5686 29.9244L38.6045 29.5557C38.6342 29.251 38.483 28.9564 38.2174 28.8033C37.9522 28.6502 37.6213 28.6662 37.3721 28.8447C37.1416 29.0096 36.8494 29.1014 36.5342 29.1014C36.251 29.1014 35.9865 29.0271 35.765 28.8971C35.035 28.4666 34.1275 28.4662 33.3963 28.8975C33.1756 29.0271 32.9111 29.1014 32.6279 29.1014C32.3514 29.1014 32.0928 29.0307 31.874 28.9064C31.1443 28.4904 30.2447 28.4998 29.5225 28.9322C29.5217 28.933 29.5205 28.9334 29.5197 28.9338C29.3436 29.0404 29.1369 29.1014 28.9166 29.1014C28.4365 29.1014 28.024 28.8119 27.8443 28.3975C27.8443 28.3975 27.5205 27.9268 27.1229 27.9268C27.0994 27.9268 26.4908 28.1564 26.5268 28.44ZM2.74512 37.4998C2.74512 35.6174 4.27363 34.0893 6.15566 34.0893C8.03809 34.0893 9.56621 35.6174 9.56621 37.4998C9.56621 37.9311 9.91621 38.2811 10.3475 38.2811C10.7787 38.2811 11.1287 37.9311 11.1287 37.4998C11.1287 34.7553 8.90059 32.5268 6.15566 32.5268C3.41113 32.5268 1.18262 34.7553 1.18262 37.4998C1.18262 37.9311 1.53301 38.2811 1.96387 38.2811C2.39512 38.2811 2.74512 37.9311 2.74512 37.4998ZM15.8459 37.4998C15.8459 35.6174 17.3744 34.0893 19.2564 34.0893C21.1389 34.0893 22.667 35.6174 22.667 37.4998C22.667 37.9311 23.0174 38.2811 23.4482 38.2811C23.8795 38.2811 24.2295 37.9311 24.2295 37.4998C24.2295 34.7553 22.0014 32.5268 19.2564 32.5268C16.5119 32.5268 14.2834 34.7553 14.2834 37.4998C14.2834 37.9311 14.6338 38.2811 15.0647 38.2811C15.4959 38.2811 15.8459 37.9311 15.8459 37.4998Z" fill="#676767"/>
<path fill-rule="evenodd" clip-rule="evenodd" d="M24.2295 37.5C24.2295 37.0684 23.8799 36.7188 23.4482 36.7188H1.96387C1.53262 36.7188 1.18262 37.0684 1.18262 37.5V44.5312C1.18262 47.5516 3.63105 50 6.65137 50C10.2416 50 15.1709 50 18.7607 50C21.7811 50 24.2295 47.5516 24.2295 44.5312C24.2295 41.2684 24.2295 37.5 24.2295 37.5ZM22.667 38.2812V44.5312C22.667 46.6887 20.9182 48.4375 18.7607 48.4375C15.1709 48.4375 10.2416 48.4375 6.65137 48.4375C4.49434 48.4375 2.74512 46.6887 2.74512 44.5312V38.2812H22.667ZM49.6201 8.20312V6.64062C49.6201 6.01914 49.3732 5.42305 48.9338 4.9832C48.4943 4.54375 47.8982 4.29688 47.2764 4.29688C43.3701 4.29688 33.2139 4.29688 29.3076 4.29688C28.6861 4.29688 28.09 4.54375 27.6506 4.9832C27.2107 5.42305 26.9639 6.01914 26.9639 6.64062C26.9639 7.42188 26.9639 8.20312 26.9639 8.20312C26.9639 8.63438 27.3143 8.98438 27.7451 8.98438C28.1764 8.98438 28.5264 8.63438 28.5264 8.20312C28.5264 8.20312 28.5264 7.42188 28.5264 6.64062C28.5264 6.43359 28.6088 6.23477 28.7553 6.08828C28.9018 5.9418 29.1006 5.85938 29.3076 5.85938H47.2764C47.4838 5.85938 47.6822 5.9418 47.8291 6.08828C47.9756 6.23477 48.0576 6.43359 48.0576 6.64062V8.20312C48.0576 8.63438 48.408 8.98438 48.8389 8.98438C49.2701 8.98438 49.6201 8.63438 49.6201 8.20312Z" fill="#676767"/>
<path fill-rule="evenodd" clip-rule="evenodd" d="M48.0576 5.07812V3.51562C48.0576 2.89414 47.8107 2.29805 47.3713 1.8582C46.9318 1.41875 46.3357 1.17188 45.7139 1.17188C42.3127 1.17188 34.2713 1.17188 30.8701 1.17188C30.2486 1.17188 29.6525 1.41875 29.2131 1.8582C28.7732 2.29805 28.5264 2.89414 28.5264 3.51562C28.5264 4.29688 28.5264 5.07812 28.5264 5.07812C28.5264 5.50938 28.8768 5.85938 29.3076 5.85938C29.7389 5.85938 30.0889 5.50938 30.0889 5.07812C30.0889 5.07812 30.0889 4.29688 30.0889 3.51562C30.0889 3.30859 30.1713 3.10977 30.3178 2.96328C30.4643 2.8168 30.6631 2.73438 30.8701 2.73438H45.7139C45.9213 2.73438 46.1197 2.8168 46.2666 2.96328C46.4131 3.10977 46.4951 3.30859 46.4951 3.51562V5.07812C46.4951 5.50938 46.8455 5.85938 47.2764 5.85938C47.7076 5.85938 48.0576 5.50938 48.0576 5.07812ZM44.1779 33.9844H46.0736V36.9219C46.0736 37.3531 46.4236 37.7031 46.8549 37.7031C47.2861 37.7031 47.6361 37.3531 47.6361 36.9219V33.9844C47.6361 33.5699 47.4717 33.1727 47.1787 32.8797C46.8857 32.5863 46.4881 32.4219 46.0736 32.4219C45.5072 32.4219 44.7443 32.4219 44.1779 32.4219C43.7635 32.4219 43.3658 32.5863 43.0729 32.8797C42.7799 33.1727 42.6154 33.5699 42.6154 33.9844C42.6154 34.6965 42.6154 35.7316 42.6154 36.9219C42.6154 37.3531 42.9654 37.7031 43.3967 37.7031C43.8275 37.7031 44.1779 37.3531 44.1779 36.9219V33.9844Z" fill="#676767"/>
<path fill-rule="evenodd" clip-rule="evenodd" d="M47.6361 36.9715C47.6361 36.5398 47.2865 36.1902 46.8549 36.1902H43.5924C40.665 36.1902 38.292 38.5633 38.292 41.4906C38.292 43.6543 38.292 46.1055 38.292 47.6562C38.292 48.2777 38.5389 48.8738 38.9787 49.3137C39.4182 49.7531 40.0143 50 40.6357 50C41.9896 50 43.9385 50 45.2924 50C45.9143 50 46.5104 49.7531 46.9498 49.3137C47.3893 48.8738 47.6361 48.2777 47.6361 47.6562C47.6361 44.3551 47.6361 36.9715 47.6361 36.9715ZM46.0736 37.7527V47.6562C46.0736 47.8633 45.9916 48.0621 45.8447 48.2086C45.6982 48.3551 45.4998 48.4375 45.2924 48.4375H40.6357C40.4287 48.4375 40.2299 48.3551 40.0834 48.2086C39.9369 48.0621 39.8545 47.8633 39.8545 47.6562C39.8545 46.1055 39.8545 43.6543 39.8545 41.4906C39.8545 39.4262 41.5279 37.7527 43.5924 37.7527H46.0736ZM8.75254 19.1605H8.36191C7.93066 19.1605 7.58066 19.5105 7.58066 19.9418C7.58066 20.373 7.93066 20.723 8.36191 20.723H8.75254V21.1137C8.75254 21.5449 9.10254 21.8949 9.53379 21.8949C9.96504 21.8949 10.315 21.5449 10.315 21.1137V20.723H10.7057C11.1369 20.723 11.4869 20.373 11.4869 19.9418C11.4869 19.5105 11.1369 19.1605 10.7057 19.1605H10.315V18.7699C10.315 18.3387 9.96504 17.9887 9.53379 17.9887C9.10254 17.9887 8.75254 18.3387 8.75254 18.7699V19.1605ZM2.35449 1.17188H1.96387C1.53301 1.17188 1.18262 1.52188 1.18262 1.95312C1.18262 2.38438 1.53301 2.73438 1.96387 2.73438H2.35449V3.125C2.35449 3.55625 2.70488 3.90625 3.13574 3.90625C3.56699 3.90625 3.91699 3.55625 3.91699 3.125V2.73438H4.30762C4.73887 2.73438 5.08887 2.38438 5.08887 1.95312C5.08887 1.52188 4.73887 1.17188 4.30762 1.17188H3.91699V0.78125C3.91699 0.35 3.56699 0 3.13574 0C2.70488 0 2.35449 0.35 2.35449 0.78125V1.17188ZM9.77637 4.29688H9.38574C8.95488 4.29688 8.60449 4.64687 8.60449 5.07812C8.60449 5.50938 8.95488 5.85938 9.38574 5.85938H9.77637V6.25C9.77637 6.68125 10.1268 7.03125 10.5576 7.03125C10.9889 7.03125 11.3389 6.68125 11.3389 6.25V5.85938H11.7295C12.1607 5.85938 12.5107 5.50938 12.5107 5.07812C12.5107 4.64687 12.1607 4.29688 11.7295 4.29688H11.3389V3.90625C11.3389 3.475 10.9889 3.125 10.5576 3.125C10.1268 3.125 9.77637 3.475 9.77637 3.90625V4.29688ZM7.24746 8.66875C5.52246 8.66875 4.12246 10.0687 4.12246 11.7937C4.12246 13.5184 5.52246 14.9188 7.24746 14.9188C8.97207 14.9188 10.3725 13.5184 10.3725 11.7937C10.3725 10.0687 8.97207 8.66875 7.24746 8.66875ZM7.24746 10.2312C8.10957 10.2312 8.80996 10.9312 8.80996 11.7937C8.80996 12.6559 8.10957 13.3563 7.24746 13.3563C6.38496 13.3563 5.68496 12.6559 5.68496 11.7937C5.68496 10.9312 6.38496 10.2312 7.24746 10.2312ZM4.99434 23.4375C3.70098 23.4375 2.65059 24.4879 2.65059 25.7812C2.65059 27.0746 3.70098 28.125 4.99434 28.125C6.28809 28.125 7.33809 27.0746 7.33809 25.7812C7.33809 24.4879 6.28809 23.4375 4.99434 23.4375ZM4.99434 25C5.42559 25 5.77559 25.35 5.77559 25.7812C5.77559 26.2125 5.42559 26.5625 4.99434 26.5625C4.56309 26.5625 4.21309 26.2125 4.21309 25.7812C4.21309 25.35 4.56309 25 4.99434 25ZM20.36 1.35391C19.0662 1.35391 18.0162 2.40391 18.0162 3.69766C18.0162 4.99102 19.0662 6.04141 20.36 6.04141C21.6533 6.04141 22.7037 4.99102 22.7037 3.69766C22.7037 2.40391 21.6533 1.35391 20.36 1.35391ZM20.36 2.91641C20.7908 2.91641 21.1412 3.26641 21.1412 3.69766C21.1412 4.12852 20.7908 4.47891 20.36 4.47891C19.9287 4.47891 19.5787 4.12852 19.5787 3.69766C19.5787 3.26641 19.9287 2.91641 20.36 2.91641ZM46.8857 12.1094H47.2764C47.7076 12.1094 48.0576 11.7594 48.0576 11.3281C48.0576 10.8969 47.7076 10.5469 47.2764 10.5469H46.8857C46.4549 10.5469 46.1045 10.8969 46.1045 11.3281C46.1045 11.7594 46.4549 12.1094 46.8857 12.1094ZM40.6357 12.1094H43.7607C44.192 12.1094 44.542 11.7594 44.542 11.3281C44.542 10.8969 44.192 10.5469 43.7607 10.5469H40.6357C40.2049 10.5469 39.8545 10.8969 39.8545 11.3281C39.8545 11.7594 40.2049 12.1094 40.6357 12.1094Z" fill="#676767"/>
</g>
<defs>
<clipPath id="clip0_226_1011">
<rect width="50.3906" height="50" fill="white" transform="translate(0.804688)"/>
</clipPath>
</defs>
</svg>
